<?xml version="1.0" encoding="UTF-8" standalone="no"?>
<!DOCTYPE svg PUBLIC "-//W3C//DTD SVG 1.1//EN"
 "http://www.w3.org/Graphics/SVG/1.1/DTD/svg11.dtd">
<!-- Generated by graphviz version 16.0.0 (0)
 -->
<!-- Title: G Pages: 1 -->
<svg width="1232pt" height="121pt"
 viewBox="0.00 0.00 1232.00 121.00" xmlns="http://www.w3.org/2000/svg" xmlns:xlink="http://www.w3.org/1999/xlink">
<g id="graph0" class="graph" transform="scale(1 1) rotate(0) translate(4 117)">
<title>G</title>
<polygon fill="white" stroke="none" points="-4,4 -4,-117 1228,-117 1228,4 -4,4"/>
<!-- github.com/0magnet/toilet&#45;go/canvas -->
<g id="node1" class="node">
<title>github.com/0magnet/toilet&#45;go/canvas</title>
<g id="a_node1"><a xlink:href="https://pkg.go.dev/github.com/0magnet/toilet-go/canvas" xlink:title="github.com/0magnet/toilet&#45;go/canvas\l1464 / 44.0KB\l" target="_graphviz">
<polygon fill="none" stroke="#480791" stroke-width="2" stroke-opacity="0.698039" points="1224,-113 1008,-113 1008,-77 1224,-77 1224,-113"/>
<text xml:space="preserve" text-anchor="start" x="1016" y="-98.25" font-family="Times,serif" font-size="10.00">github.com/0magnet/toilet&#45;go/canvas</text>
<text xml:space="preserve" text-anchor="start" x="1016" y="-85.5" font-family="Times,serif" font-size="10.00">1464 / 44.0KB</text>
</a>
</g>
</g>
<!-- github.com/0magnet/toilet&#45;go/cmd/toilet -->
<g id="node2" class="node">
<title>github.com/0magnet/toilet&#45;go/cmd/toilet</title>
<g id="a_node2"><a xlink:href="https://pkg.go.dev/github.com/0magnet/toilet-go/cmd/toilet" xlink:title="github.com/0magnet/toilet&#45;go/cmd/toilet\l403 / 10.8KB\l" target="_graphviz">
<polygon fill="none" stroke="#916807" stroke-width="2" stroke-opacity="0.698039" points="252,-90 0,-90 0,-54 252,-54 252,-90"/>
<text xml:space="preserve" text-anchor="start" x="8" y="-75.25" font-family="Times,serif" font-size="10.00">github.com/0magnet/toilet&#45;go/cmd/toilet</text>
<text xml:space="preserve" text-anchor="start" x="8" y="-62.5" font-family="Times,serif" font-size="10.00">403 / 10.8KB</text>
</a>
</g>
</g>
<!-- github.com/0magnet/toilet&#45;go/toilet -->
<g id="node5" class="node">
<title>github.com/0magnet/toilet&#45;go/toilet</title>
<g id="a_node5"><a xlink:href="https://pkg.go.dev/github.com/0magnet/toilet-go/toilet" xlink:title="github.com/0magnet/toilet&#45;go/toilet\l438 / 12.6KB\l" target="_graphviz">
<polygon fill="none" stroke="#259107" stroke-width="2" stroke-opacity="0.698039" points="576,-90 360,-90 360,-54 576,-54 576,-90"/>
<text xml:space="preserve" text-anchor="start" x="368" y="-75.25" font-family="Times,serif" font-size="10.00">github.com/0magnet/toilet&#45;go/toilet</text>
<text xml:space="preserve" text-anchor="start" x="368" y="-62.5" font-family="Times,serif" font-size="10.00">438 / 12.6KB</text>
</a>
</g>
</g>
<!-- github.com/0magnet/toilet&#45;go/cmd/toilet&#45;&gt;github.com/0magnet/toilet&#45;go/toilet -->
<g id="edge1" class="edge">
<title>github.com/0magnet/toilet&#45;go/cmd/toilet:e&#45;&gt;github.com/0magnet/toilet&#45;go/toilet</title>
<path fill="none" stroke="#259107" stroke-width="2" stroke-opacity="0.698039" d="M252,-72C282.46,-72 315.34,-72 346.01,-72"/>
<polygon fill="#259107" fill-opacity="0.698039" stroke="#259107" stroke-width="2" stroke-opacity="0.698039" points="345.98,-75.5 355.98,-72 345.98,-68.5 345.98,-75.5"/>
</g>
<!-- github.com/0magnet/toilet&#45;go/figlet -->
<g id="node3" class="node">
<title>github.com/0magnet/toilet&#45;go/figlet</title>
<g id="a_node3"><a xlink:href="https://pkg.go.dev/github.com/0magnet/toilet-go/figlet" xlink:title="github.com/0magnet/toilet&#45;go/figlet\l775 / 22.8KB\l" target="_graphviz">
<polygon fill="none" stroke="#912107" stroke-width="2" stroke-opacity="0.698039" points="900,-90 684,-90 684,-54 900,-54 900,-90"/>
<text xml:space="preserve" text-anchor="start" x="692" y="-75.25" font-family="Times,serif" font-size="10.00">github.com/0magnet/toilet&#45;go/figlet</text>
<text xml:space="preserve" text-anchor="start" x="692" y="-62.5" font-family="Times,serif" font-size="10.00">775 / 22.8KB</text>
</a>
</g>
</g>
<!-- github.com/0magnet/toilet&#45;go/figlet&#45;&gt;github.com/0magnet/toilet&#45;go/canvas -->
<g id="edge2" class="edge">
<title>github.com/0magnet/toilet&#45;go/figlet:e&#45;&gt;github.com/0magnet/toilet&#45;go/canvas</title>
<path fill="none" stroke="#480791" stroke-width="2" stroke-opacity="0.698039" d="M900,-72C930.77,-72 963.87,-74.36 994.66,-77.56"/>
<polygon fill="#480791" fill-opacity="0.698039" stroke="#480791" stroke-width="2" stroke-opacity="0.698039" points="993.91,-81 1004.23,-78.6 994.67,-74.04 993.91,-81"/>
</g>
<!-- github.com/0magnet/toilet&#45;go/fonts -->
<g id="node4" class="node">
<title>github.com/0magnet/toilet&#45;go/fonts</title>
<g id="a_node4"><a xlink:href="https://pkg.go.dev/github.com/0magnet/toilet-go/fonts" xlink:title="github.com/0magnet/toilet&#45;go/fonts\l50 / 1.7KB\l" target="_graphviz">
<polygon fill="none" stroke="#914607" stroke-width="2" stroke-opacity="0.698039" points="900,-36 684,-36 684,0 900,0 900,-36"/>
<text xml:space="preserve" text-anchor="start" x="692" y="-21.25" font-family="Times,serif" font-size="10.00">github.com/0magnet/toilet&#45;go/fonts</text>
<text xml:space="preserve" text-anchor="start" x="692" y="-8.5" font-family="Times,serif" font-size="10.00">50 / 1.7KB</text>
</a>
</g>
</g>
<!-- github.com/0magnet/toilet&#45;go/toilet&#45;&gt;github.com/0magnet/toilet&#45;go/canvas -->
<g id="edge3" class="edge">
<title>github.com/0magnet/toilet&#45;go/toilet:e&#45;&gt;github.com/0magnet/toilet&#45;go/canvas</title>
<path fill="none" stroke="#480791" stroke-width="2" stroke-opacity="0.698039" d="M576,-72C625.48,-72 634.89,-92.95 684,-99 779.28,-110.73 804,-99.89 900,-99 930.46,-98.72 963.34,-98.21 994.01,-97.65"/>
<polygon fill="#480791" fill-opacity="0.698039" stroke="#480791" stroke-width="2" stroke-opacity="0.698039" points="994.05,-101.15 1003.98,-97.46 993.92,-94.15 994.05,-101.15"/>
</g>
<!-- github.com/0magnet/toilet&#45;go/toilet&#45;&gt;github.com/0magnet/toilet&#45;go/figlet -->
<g id="edge4" class="edge">
<title>github.com/0magnet/toilet&#45;go/toilet:e&#45;&gt;github.com/0magnet/toilet&#45;go/figlet</title>
<path fill="none" stroke="#912107" stroke-width="2" stroke-opacity="0.698039" d="M576,-72C606.46,-72 639.34,-72 670.01,-72"/>
<polygon fill="#912107" fill-opacity="0.698039" stroke="#912107" stroke-width="2" stroke-opacity="0.698039" points="669.98,-75.5 679.98,-72 669.98,-68.5 669.98,-75.5"/>
</g>
<!-- github.com/0magnet/toilet&#45;go/toilet&#45;&gt;github.com/0magnet/toilet&#45;go/fonts -->
<g id="edge5" class="edge">
<title>github.com/0magnet/toilet&#45;go/toilet:e&#45;&gt;github.com/0magnet/toilet&#45;go/fonts</title>
<path fill="none" stroke="#914607" stroke-width="2" stroke-opacity="0.698039" d="M576,-72C576.43,-72 643.97,-55.02 703.23,-40.11"/>
<polygon fill="#914607" fill-opacity="0.698039" stroke="#914607" stroke-width="2" stroke-opacity="0.698039" points="703.94,-43.54 712.79,-37.7 702.24,-36.75 703.94,-43.54"/>
</g>
</g>
</svg>
